# File created by Luuv tsx 1.1.4
# Created on: Mon Sep 27 11:07:43 2010 -1
# Vertices: 58
# Texture vertices: 120
# Normals: 58
# Faces: 62

mtllib policecar sign.mtl
v -0.187957 0.795093 0.494437
v -0.184839 0.760898 0.252592
v -0.183490 0.749696 0.501161
v -0.186213 0.767853 0.000024
v -0.188115 0.795133 -0.495980
v -0.184794 0.760409 -0.252534
v -0.183649 0.748730 -0.501057
v -0.187934 0.795087 0.635544
v -0.180793 0.725320 0.702785
v -0.187923 0.795084 0.702496
v -0.188137 0.795139 -0.636657
v -0.188148 0.795142 -0.702894
v -0.181017 0.723963 -0.702608
v 0.000657 0.824613 -0.642952
v 0.025771 0.804970 -0.642969
v 0.025761 0.804905 -0.709841
v -0.037516 0.822241 -0.686123
v -0.007596 0.964626 -0.642970
v -0.045905 0.962246 -0.686300
v -0.049535 1.010264 -0.642943
v -0.170397 0.814167 -0.636651
v -0.132099 0.816465 -0.682404
v -0.140488 0.956470 -0.682581
v -0.178650 0.954180 -0.636668
v -0.144468 1.003991 -0.636658
v 0.000826 0.825808 0.640333
v -0.045708 0.963523 0.684150
v -0.037321 0.823518 0.684340
v -0.007428 0.965821 0.640317
v 0.025986 0.806273 0.707799
v 0.025952 0.806067 0.494438
v 0.000807 0.825672 0.494442
v -0.049436 1.011542 0.640345
v -0.170229 0.815352 0.635550
v -0.131937 0.817734 0.681499
v -0.178482 0.955366 0.635535
v -0.140324 0.957739 0.681309
v -0.144368 1.005259 0.635546
v 0.025795 0.805111 -0.495961
v 0.000677 0.824750 -0.495962
v 0.032111 0.764278 -0.495953
v 0.032891 0.735141 -0.709552
v -0.007577 0.964763 -0.495994
v -0.049524 1.010411 -0.495998
v -0.007447 0.965685 0.494442
v -0.049447 1.011397 0.494442
v -0.170248 0.815221 0.494444
v -0.144379 1.005119 0.494442
v -0.178501 0.955234 0.494430
v -0.170378 0.814298 -0.495974
v -0.178631 0.954312 -0.495991
v -0.144457 1.004131 -0.495981
v 0.029163 0.772967 -0.256582
v 0.028821 0.779695 -0.000758
v 0.029243 0.773460 0.255046
v 0.026324 0.802797 0.494438
v 0.029661 0.765234 0.494437
v 0.033116 0.736509 0.708088

vt 0.153859 0.052444
vt 0.325229 0.229156
vt 0.320479 0.076300
vt 0.153751 0.229752
vt 0.149198 0.083841
vt 0.499355 0.228357
vt 0.494419 0.071687
vt 0.836363 0.053212
vt 0.673484 0.228932
vt 0.668514 0.077079
vt 0.844946 0.229137
vt 0.839830 0.085358
vt 0.056257 0.052301
vt 0.013780 0.230599
vt 0.010166 0.101155
vt 0.758281 0.624401
vt 0.010000 0.053061
vt 0.758281 0.672730
vt 0.933378 0.053306
vt 0.912455 0.568284
vt 0.979061 0.053352
vt 0.912554 0.518985
vt 0.984901 0.229727
vt 0.978808 0.102687
vt 0.115399 0.389505
vt 0.010010 0.532609
vt 0.940335 0.185688
vt 0.941310 0.163673
vt 0.765040 0.560009
vt 0.987550 0.162890
vt 0.155093 0.391568
vt 0.807352 0.582840
vt 0.972310 0.208240
vt 0.110185 0.486022
vt 0.106669 0.532696
vt 0.115065 0.507312
vt 0.150023 0.488094
vt 0.149384 0.532744
vt 0.261456 0.397035
vt 0.353242 0.536949
vt 0.933389 0.035365
vt 0.220361 0.394918
vt 0.872620 0.586186
vt 0.966867 0.011380
vt 0.215291 0.491445
vt 0.256411 0.493562
vt 0.256583 0.537026
vt 0.249674 0.514097
vt 0.214951 0.537068
vt 0.056568 0.184358
vt 0.707858 0.533474
vt 0.604186 0.390277
vt 0.568055 0.488471
vt 0.024245 0.208227
vt 0.564051 0.391896
vt 0.863508 0.688215
vt 0.603021 0.508176
vt 0.611201 0.533386
vt 0.608159 0.486853
vt 0.010095 0.162322
vt 0.905763 0.665398
vt 0.157178 0.162502
vt 0.707848 0.634015
vt 0.010129 0.645307
vt 0.157137 0.184475
vt 0.568411 0.533336
vt 0.457531 0.396217
vt 0.364533 0.536772
vt 0.057260 0.033754
vt 0.498749 0.394525
vt 0.023485 0.011380
vt 0.798227 0.691333
vt 0.461686 0.492785
vt 0.461192 0.536693
vt 0.468255 0.513445
vt 0.502752 0.491100
vt 0.502845 0.536651
vt 0.839552 0.163471
vt 0.010000 0.633909
vt 0.692673 0.645378
vt 0.839490 0.185395
vt 0.841436 0.378214
vt 0.839602 0.135032
vt 0.765040 0.511680
vt 0.990000 0.377332
vt 0.987034 0.114795
vt 0.692596 0.742036
vt 0.106659 0.633986
vt 0.692568 0.784759
vt 0.149382 0.634013
vt 0.010031 0.741965
vt 0.611190 0.633916
vt 0.010000 0.784745
vt 0.568408 0.633886
vt 0.364533 0.634016
vt 0.010131 0.988620
vt 0.153887 0.034026
vt 0.010008 0.850310
vt 0.502843 0.633894
vt 0.010051 0.891961
vt 0.461191 0.633937
vt 0.353242 0.633897
vt 0.692685 0.988620
vt 0.836376 0.035210
vt 0.692607 0.891960
vt 0.256583 0.633974
vt 0.692565 0.850326
vt 0.214948 0.634016
vt 0.676358 0.376633
vt 0.674683 0.140817
vt 0.499994 0.376772
vt 0.498411 0.145033
vt 0.323653 0.376947
vt 0.322173 0.140312
vt 0.157183 0.160234
vt 0.158578 0.377030
vt 0.157242 0.134244
vt 0.010000 0.378214
vt 0.010000 0.113978
vt 0.905763 0.617069

vn -0.952038 0.305980 0.000275
vn -0.662546 -0.748629 -0.024243
vn -0.659017 -0.749641 -0.061112
vn -0.668764 -0.743475 0.000729
vn -0.949661 0.313279 -0.000528
vn -0.651993 -0.757803 0.025288
vn -0.659591 -0.749022 0.062491
vn -0.908218 0.414058 0.060796
vn -0.529237 -0.658275 0.535334
vn -0.626350 0.424492 0.653828
vn -0.908572 0.417727 -0.000477
vn -0.674289 0.441277 -0.592122
vn -0.531756 -0.660949 -0.529510
vn 0.740216 0.615826 -0.269885
vn 0.815045 0.575385 -0.068073
vn 0.529914 0.514641 -0.674045
vn 0.204740 0.570211 -0.795576
vn 0.877206 0.355482 -0.322711
vn 0.334016 0.347364 -0.876226
vn 0.316793 0.879018 -0.356329
vn -0.840946 0.509763 -0.181525
vn -0.330259 0.554207 -0.764058
vn -0.413965 0.301825 -0.858798
vn -0.919572 0.240407 -0.310793
vn -0.449243 0.828250 -0.334938
vn 0.791675 0.571768 0.215248
vn 0.340910 0.349161 0.872850
vn 0.208999 0.564110 0.798811
vn 0.878435 0.356247 0.318497
vn 0.586944 0.500407 0.636467
vn 0.874941 0.484229 -0.000192
vn 0.885244 0.465126 -0.000573
vn 0.319025 0.879546 0.353019
vn -0.826433 0.501167 0.256591
vn -0.305786 0.530904 0.790339
vn -0.919511 0.240228 0.311111
vn -0.409677 0.302659 0.860559
vn -0.448372 0.827879 0.337015
vn 0.868088 0.496407 -0.001996
vn 0.885426 0.464780 -0.000574
vn 0.783049 -0.618751 0.063100
vn 0.609317 -0.573522 -0.547544
vn 0.920667 0.390350 -0.000485
vn 0.371682 0.928360 -0.000952
vn 0.920674 0.390332 -0.000484
vn 0.371679 0.928361 -0.000950
vn -0.945891 0.324484 -0.000176
vn -0.495603 0.868549 -0.000825
vn -0.963645 0.267186 -0.000164
vn -0.943549 0.331233 -0.000183
vn -0.963543 0.267553 -0.000164
vn -0.495284 0.868731 -0.000828
vn 0.762892 -0.645971 0.026785
vn 0.767256 -0.641341 0.000551
vn 0.760624 -0.648727 -0.024590
vn 0.995102 0.098849 0.000601
vn 0.769242 -0.635874 -0.062693
vn 0.612134 -0.571146 0.546886

mtllib policecar sign.mtl

g Default
s 1
usemtl policelight
f 1/1/1 2/3/2 3/5/3
f 5/8/5 4/7/4 2/3/2 1/1/1
f 7/12/7 6/10/6 4/7/4 5/8/5
f 1/1/1 3/5/3 9/15/9 8/13/8
f 10/17/10 8/13/8 9/15/9
f 11/19/11 12/21/12 13/24/13
f 13/24/13 7/12/7 5/8/5 11/19/11
f 17/33/17 14/27/14 15/28/15 16/30/16
f 18/36/18 19/37/19 20/38/20
f 19/37/19 18/34/18 14/25/14 17/31/17
f 12/21/12 11/19/11 21/41/21 22/44/22
f 23/45/23 24/48/24 25/49/25
f 23/45/23 22/42/22 21/39/21 24/46/24
f 12/20/12 22/43/22 17/32/17 16/29/16
f 23/45/23 25/49/25 20/38/20 19/37/19
f 22/42/22 23/45/23 19/37/19 17/31/17
f 29/59/29 27/53/27 28/55/28 26/52/26
f 26/50/26 28/54/28 30/60/30
f 32/65/32 26/50/26 30/60/30 31/62/31
f 27/53/27 29/57/29 33/66/33
f 8/13/8 10/17/10 35/71/35 34/69/34
f 36/75/36 37/76/37 38/77/38
f 36/73/36 34/67/34 35/70/35 37/76/37
f 37/76/37 27/53/27 33/66/33 38/77/38
f 35/70/35 28/55/28 27/53/27 37/76/37
f 10/18/10 30/61/30 28/56/28 35/72/35
f 14/27/14 40/81/40 39/78/39 15/28/15
f 42/86/42 15/28/15 39/78/39 41/83/41
f 15/28/15 42/86/42 16/30/16
f 18/35/18 20/38/20 44/90/44 43/88/43
f 18/35/18 43/88/43 40/79/40 14/26/14
f 45/92/45 29/58/29 26/51/26 32/63/32
f 46/94/46 33/66/33 29/58/29 45/92/45
f 1/1/1 8/13/8 34/69/34 47/97/47
f 49/101/49 36/74/36 38/77/38 48/99/48
f 49/101/49 47/95/47 34/68/34 36/74/36
f 11/19/11 5/8/5 50/104/50 21/41/21
f 24/47/24 51/106/51 52/108/52 25/49/25
f 24/47/24 21/40/21 50/102/50 51/106/51
f 5/8/5 1/1/1 47/97/47 50/104/50
f 51/105/51 49/100/49 48/98/48 52/107/52
f 51/105/51 50/103/50 47/96/47 49/100/49
f 25/49/25 52/108/52 44/90/44 20/38/20
f 52/107/52 48/98/48 46/93/46 44/89/44
f 39/78/39 53/110/53 41/83/41
f 39/78/39 31/62/31 54/112/54 53/110/53
f 55/114/55 54/112/54 31/62/31
f 55/114/55 31/62/31 56/115/56 57/117/57
f 40/81/40 32/65/32 31/62/31 39/78/39
f 43/87/43 45/91/45 32/64/32 40/80/40
f 44/89/44 46/93/46 45/91/45 43/87/43
f 48/99/48 38/77/38 33/66/33 46/94/46
f 57/117/57 56/115/56 30/60/30 58/119/58
f 56/115/56 31/62/31 30/60/30
f 13/22/13 12/20/12 16/29/16 42/84/42
f 9/16/9 58/120/58 30/61/30 10/18/10
f 3/4/3 57/116/57 58/118/58 9/14/9
f 2/2/2 55/113/55 57/116/57 3/4/3
f 4/6/4 54/111/54 55/113/55 2/2/2
f 4/6/4 6/9/6 53/109/53 54/111/54
f 6/9/6 7/11/7 41/82/41 53/109/53
f 7/11/7 13/23/13 42/85/42 41/82/41

# The end.
